<?xml version="1.0" standalone="no"?>
<!DOCTYPE svg PUBLIC "-//W3C//DTD SVG 20010904//EN"
 "http://www.w3.org/TR/2001/REC-SVG-20010904/DTD/svg10.dtd">
<svg version="1.0" xmlns="http://www.w3.org/2000/svg"
 width="256.000000pt" height="256.000000pt" viewBox="0 0 256.000000 256.000000"
 preserveAspectRatio="xMidYMid meet">

<g transform="translate(0.000000,256.000000) scale(0.100000,-0.100000)"
fill="#000000" stroke="none">
<path d="M605 2291 c-47 -6 -66 -13 -172 -62 -24 -10 -46 -19 -50 -19 -12 0
-83 -81 -83 -96 0 -8 -4 -14 -9 -14 -5 0 -15 -16 -21 -35 -6 -19 -16 -35 -21
-35 -5 0 -9 -12 -9 -27 0 -16 -7 -41 -15 -57 -13 -24 -15 -127 -15 -727 0
-410 4 -700 9 -703 5 -4 12 -24 16 -46 4 -22 11 -40 16 -40 5 0 9 -6 9 -13 0
-7 8 -22 18 -33 10 -10 27 -34 37 -51 11 -18 23 -33 27 -33 4 0 15 -8 25 -18
10 -11 41 -25 68 -32 28 -8 53 -18 57 -24 5 -8 203 -12 638 -14 l631 -3 -28
32 c-15 18 -35 40 -43 49 -44 49 -61 91 -67 168 -3 34 -8 63 -12 63 -3 1 -201
3 -439 4 -426 2 -434 3 -476 25 -24 12 -49 34 -56 48 -7 15 -16 35 -21 44 -12
24 -12 378 0 378 5 0 12 9 16 20 13 40 58 50 220 50 196 0 185 -11 185 183 0
171 7 163 -125 152 -46 -4 -116 -4 -156 0 -66 7 -77 11 -111 45 l-38 37 -1
178 c0 98 4 181 9 184 5 3 12 19 16 34 5 21 19 34 54 50 46 21 59 21 497 22
483 1 499 3 560 53 50 41 68 77 66 135 -1 47 -4 56 -43 92 l-42 40 -535 1
c-295 1 -558 -2 -586 -5z"/>
</g>
</svg>
